<?xml version="1.0" encoding="UTF-8"?>
<!-- Generator: Adobe Illustrator 23.0.1, SVG Export Plug-In . SVG Version: 6.00 Build 0)  -->
<svg xmlns="http://www.w3.org/2000/svg" xmlns:xlink="http://www.w3.org/1999/xlink" id="Layer_1" x="0px" y="0px" viewBox="0 0 75 75" style="enable-background:new 0 0 75 75;" xml:space="preserve">
<style type="text/css">

	.st1{fill:none;stroke-width:3;stroke-linecap:square;stroke-miterlimit:10;}
	.st2{fill:none;stroke-width:3;stroke-miterlimit:10;}
</style>
<title>checklist-left</title>

<polyline class="st1 stroke-secondary" points="60.5,27.9 60.5,66.1 13.6,66.1 13.6,8.6 41.2,8.6 "></polyline>
<polyline class="st1 stroke-secondary" points="49,14.9 42.8,14.9 42.8,25.8 53.7,25.8 53.7,23.6 "></polyline>
<polyline class="st2 stroke-secondary" points="56.5,14.4 49.2,21.6 46.3,18.8 "></polyline>
<rect x="42.8" y="31.6" class="st2 stroke-secondary" width="10.8" height="10.9"></rect>
<rect x="42.8" y="48.2" class="st2 stroke-secondary" width="10.8" height="10.8"></rect>
<line class="st2 stroke-secondary" x1="18.4" y1="14.9" x2="38" y2="14.9"></line>
<line class="st2 stroke-secondary" x1="18.4" y1="20.2" x2="34.2" y2="20.2"></line>
<line class="st2 stroke-secondary" x1="18.4" y1="31.6" x2="33.2" y2="31.6"></line>
<line class="st2 stroke-secondary" x1="18.4" y1="36.9" x2="36.1" y2="36.9"></line>
<line class="st2 stroke-secondary" x1="18.8" y1="48.2" x2="35.5" y2="48.2"></line>
<line class="st2 stroke-secondary" x1="18.8" y1="53.5" x2="32.7" y2="53.5"></line>
</svg>
