<!--?xml version="1.0" encoding="UTF-8"?-->
<svg xmlns="http://www.w3.org/2000/svg" viewBox="0 0 75 75">
  <title>Hand</title>
  <g>
    <polyline points="30.72 44.63 30.72 37.68 50.07 37.68 50.07 49.35" fill="none" class="stroke-secondary" stroke-miterlimit="10" stroke-width="3"></polyline>
    <polyline points="61.78 47.17 61.78 9.12 29 9.12" fill="none" class="stroke-secondary" stroke-miterlimit="10" stroke-width="3"></polyline>
    <rect x="25" y="24.92" width="30.78" height="4.93" fill="none" class="stroke-secondary" stroke-miterlimit="10" stroke-width="3"></rect>

    <line x1="19" y1="48.2" x2="19" y2="19.12" fill="none" class="stroke-secondary" stroke-linecap="square" stroke-miterlimit="10" stroke-width="3"></line>
    <polyline points="27.2 24.92 27.2 16.25 36.39 16.25 36.39 24.92" fill="none" class="stroke-secondary" stroke-miterlimit="10" stroke-width="3"></polyline>
    <path d="M33.11,50.81H50.4s8.4-2.69,12.05-3.64S69,49.55,69,49.55L52.46,57.89,22,63.66H16" fill="none" class="stroke-secondary" stroke-miterlimit="10" stroke-width="3"></path>
    <path d="M16,50.81s10-5.55,14.59-5.55H46.12s.79,5.08-2.86,5.55" fill="none" class="stroke-secondary" stroke-miterlimit="10" stroke-width="3"></path>
    <rect x="5.71" y="47.17" width="10.27" height="18.71" fill="none" class="stroke-secondary" stroke-miterlimit="10" stroke-width="3"></rect>
    <line x1="40.76" y1="37.68" x2="40.76" y2="45.26" fill="none" class="stroke-secondary" stroke-miterlimit="10" stroke-width="3"></line>
  </g>
</svg>